<svg xmlns="http://www.w3.org/2000/svg" width="40px" height="40px"
     preserveAspectRatio="xMidYMid slice">
    <circle id="good" cx="5" cy="10" style="fill:springgreen; stroke:grey; stroke-width: 0.1px;" r="2"/>
    <circle id="ok" cx="15" cy="15" style="fill:greenyellow; stroke:grey; stroke-width: 0.1px;" r="2"/>
    <circle id="bad" cx="5" cy="20" style="fill:red; stroke:grey; stroke-width: 0.1px;" r="2"/>
    <circle id="sorta_bad" cx="5" cy="30" style="fill:gold; stroke:grey; stroke-width: 0.1px;" r="2"/>

    <line id="intro"
          x1="5" y1="5"
          x2="5" y2="7"
          style="stroke:grey;fill:none;stroke-width:1px;"/>
    <line id="if_then"
          x1="5" y1="13"
          x2="5" y2="17"
          style="stroke:grey;fill:none;stroke-width:1px;"/>
    <line id="else"
          x1="7.5" y1="11"
          x2="12" y2="13.75"
          style="stroke:grey;fill:none;stroke-width:1px;"/>
    <line id="end_else"
          x1="7.5" y1="19"
          x2="12" y2="16.25"
          style="stroke:grey;fill:none;stroke-width:1px;"/>
    <line id="finally"
          x1="5" y1="23"
          x2="5" y2="27"
          style="stroke:grey;fill:none;stroke-width:1px;"/>
    <line id="outro"
          x1="5" y1="33"
          x2="5" y2="35"
          style="stroke:grey;fill:none;stroke-width:1px;"/>

    <path d="M15,25 h4 a2,2 0 0 1 2,2 v3 a2,2 0 0 1 -2,2 h-4 a2,2 0 0 1 -2,-2 v-3 a2,2 0 0 1 2,-2 z"
          style="stroke:grey; stroke-width: 0.1px; fill:greenyellow;"/>
    <path d="M25,25 h7 a2,2 0 0 1 2,2 v3 a2,2 0 0 1 -2,2 h-7 a2,2 0 0 1 -2,-2 v-3 a2,2 0 0 1 2,-2 z"
          style="stroke:grey; stroke-width: 0.1px; fill:gold;"/>

    <text x="15.5" y="30.25" style="font: 5px sans-serif;">4</text>
    <text x="26" y="30.25" style="font: 5px sans-serif;">21</text>
</svg>